<svg width="85" height="79" viewBox="0 0 85 79" fill="none" xmlns="http://www.w3.org/2000/svg">
<g id="Group 23">
<g id="Group 22">
<path id="Fill 56" fill-rule="evenodd" clip-rule="evenodd" d="M3.47571 53.4659H74.5934V45.4827H3.47571V53.4659ZM52.7129 65.4431H56.6563V68.9719H21.4128V65.4431H25.3551C26.0105 65.4431 26.5404 64.9141 26.5404 64.2597V55.8327H51.5276V64.2597C51.5276 64.9141 52.0586 65.4431 52.7129 65.4431ZM3.47571 43.1159H74.5934V2.95151H3.47571V43.1159ZM2.29042 0.584717C1.63495 0.584717 1.10512 1.11369 1.10512 1.76811V54.6493C1.10512 55.3037 1.63495 55.8327 2.29042 55.8327H24.1698V63.0763H20.2275C19.572 63.0763 19.0422 63.6076 19.0422 64.2597V70.1553C19.0422 70.8074 19.572 71.3387 20.2275 71.3387H57.8416C58.4959 71.3387 59.0269 70.8074 59.0269 70.1553V64.2597C59.0269 63.6076 58.4959 63.0763 57.8416 63.0763H53.8982V55.8327H75.7787C76.433 55.8327 76.964 55.3037 76.964 54.6493V1.76811C76.964 1.11369 76.433 0.584717 75.7787 0.584717H2.29042Z" fill="#62E0D9"/>
<path id="Fill 57" fill-rule="evenodd" clip-rule="evenodd" d="M37.4119 47.9205C36.7579 47.9205 36.2266 48.451 36.2266 49.1039C36.2266 49.7569 36.7579 50.2873 37.4119 50.2873C38.0659 50.2873 38.5972 49.7569 38.5972 49.1039C38.5972 48.451 38.0659 47.9205 37.4119 47.9205Z" fill="#62E0D9"/>
<g id="Group 10">
<rect id="Rectangle 5" x="57.1972" y="23.8898" width="25.6206" height="52.795" rx="1.64118" fill="#181F2B" stroke="#62E0D9" stroke-width="1.64118"/>
<rect id="Rectangle 9" x="56.6725" y="29.2821" width="26.6701" height="0.591698" fill="white" stroke="#62E0D9" stroke-width="0.591698"/>
<rect id="Rectangle 9 Copy" x="56.6725" y="67.1507" width="26.6701" height="0.591698" fill="white" stroke="#62E0D9" stroke-width="0.591698"/>
<path id="Oval" fill-rule="evenodd" clip-rule="evenodd" d="M69.4148 72.7718C70.0695 72.7718 70.6001 72.242 70.6001 71.5884C70.6001 70.9349 70.0695 70.405 69.4148 70.405C68.7602 70.405 68.2296 70.9349 68.2296 71.5884C68.2296 72.242 68.7602 72.7718 69.4148 72.7718Z" stroke="#62E0D9" stroke-width="1.00971"/>
</g>
</g>
<g id="Group 20">
<g id="map">
<path id="Shape" fill-rule="evenodd" clip-rule="evenodd" d="M46.4004 15.9689C46.3016 15.9689 46.3016 15.9689 46.2028 15.9689L40.9678 18.0398L35.0413 15.9689L29.5099 17.8426C29.3124 17.9412 29.1148 18.0398 29.1148 18.3357V33.2267C29.1148 33.5226 29.3124 33.7198 29.6087 33.7198C29.7075 33.7198 29.7075 33.7198 29.8062 33.7198L35.0413 31.6489L40.9678 33.7198L46.4991 31.8461C46.6967 31.7475 46.8942 31.5502 46.8942 31.353V16.462C46.8942 16.1661 46.6967 15.9689 46.4004 15.9689ZM40.9678 30.7613L35.0413 28.7643V17.4481L40.9678 19.4451V30.7613Z" fill="#62E0D9"/>
</g>
<g id="place">
<path id="Shape_2" fill-rule="evenodd" clip-rule="evenodd" d="M31.4854 15.9689C30.1647 15.9689 29.1148 16.886 29.1148 18.0398C29.1148 19.5782 31.4854 21.8858 31.4854 21.8858C31.4854 21.8858 33.856 19.5782 33.856 18.0398C33.856 16.886 32.8062 15.9689 31.4854 15.9689ZM31.4854 18.9274C30.9748 18.9274 30.5736 18.5658 30.5736 18.1056C30.5736 17.6453 30.9748 17.2838 31.4854 17.2838C31.996 17.2838 32.3972 17.6453 32.3972 18.1056C32.3972 18.5658 31.996 18.9274 31.4854 18.9274Z" fill="white"/>
</g>
</g>
</g>
</svg>
